<svg xmlns="http://www.w3.org/2000/svg" xmlns:xlink="http://www.w3.org/1999/xlink" viewBox="0,0,256,256" width="64px" height="64px" fill-rule="nonzero"><defs><clipPath id="clip-1"><path d="M0,256v-256h256v256zM233.18397,188.40807c-2.29577,-7.06338 -8.56003,-12.06124 -15.95524,-12.7283l-10.88627,-0.98535l-4.30372,-10.05329c-2.92219,-6.82974 -9.60971,-11.23842 -17.03878,-11.23842c-7.42907,0 -14.11659,4.41546 -17.03878,11.23842l-4.30372,10.05329l-10.88627,0.98535c-7.39521,0.67045 -13.65947,5.66492 -15.95524,12.7283c-2.29577,7.06338 -0.16592,14.78704 5.42451,19.67993l8.23158,7.19882l-2.42782,10.6594c-1.64564,7.24284 1.17159,14.74302 7.1785,19.10768c6.00353,4.36466 14.00824,4.72698 20.38762,0.92102l9.38962,-5.60059l9.38962,5.60059c2.93912,1.75399 6.22024,2.62083 9.49797,2.62083c3.83305,0 7.65255,-1.1919 10.89304,-3.54523c6.00692,-4.36466 8.82414,-11.86485 7.1785,-19.10768l-2.42782,-10.6594l8.23158,-7.19882c5.58704,-4.88951 7.71689,-12.61317 5.42112,-19.67655z" id="overlayBgMask" fill="none" stroke="none" stroke-width="1" stroke-linejoin="miter"></path></clipPath></defs><g transform=""><g fill="#9b0000" fill-rule="nonzero" stroke="none" stroke-width="1" stroke-linecap="butt" stroke-linejoin="miter" stroke-miterlimit="10" stroke-dasharray="" stroke-dashoffset="0" font-family="none" font-weight="none" font-size="none" text-anchor="none" style="mix-blend-mode: normal"><path d="M72.96,238.08c-30.39775,0 -55.04,-24.64225 -55.04,-55.04v-110.08c0,-30.39775 24.64225,-55.04 55.04,-55.04h110.08c30.39775,0 55.04,24.64225 55.04,55.04v110.08c0,30.39775 -24.64225,55.04 -55.04,55.04z" id="shape"></path></g><g clip-path="url(#clip-1)" fill="none" fill-rule="nonzero" stroke="none" stroke-width="none" stroke-linecap="butt" stroke-linejoin="none" stroke-miterlimit="10" stroke-dasharray="" stroke-dashoffset="0" font-family="none" font-weight="none" font-size="none" text-anchor="none" style="mix-blend-mode: normal"><path transform="scale(3.55556,3.55556)" d="M33.57031,14.09961c0.88,0 1.71516,0.38664 2.28516,1.05664l3.69141,4.3418h1.26367l1.63281,-3.63086c0.484,-1.077 1.55633,-1.76758 2.73633,-1.76758h9.17969c1.211,0 2.30548,0.7277 2.77148,1.8457l5.39844,12.95899c0.283,0.681 0.30745,1.44363 0.06445,2.14063l-8.64062,24.83984c-0.419,1.207 -1.55698,2.01563 -2.83398,2.01563h-10.79883c-0.944,0 -1.83244,-0.44517 -2.39844,-1.20117l-2.03906,-2.81836h-0.11328l-0.74023,2.07227c-0.439,1.17 -1.55859,1.94727 -2.80859,1.94727h-11.33984c-0.842,0 -1.64684,-0.35456 -2.21484,-0.97656l-8.64062,-9.44922c-0.74,-0.81 -0.97805,-1.95905 -0.62305,-2.99805l9.71875,-28.34961c0.416,-1.212 1.55784,-2.02734 2.83984,-2.02734z" id="strokeMainSVG" fill="#de4f4f" stroke="#de4f4f" stroke-width="6" stroke-linejoin="round"></path><g transform="scale(3.55556,3.55556)" fill="#3d3d3d" stroke="none" stroke-width="1" stroke-linejoin="miter"><path d="M21.96094,14.09961c-1.282,0 -2.42384,0.81534 -2.83984,2.02734l-9.71875,28.34961c-0.355,1.039 -0.11695,2.18805 0.62305,2.99805l8.64062,9.44922c0.568,0.622 1.37284,0.97656 2.21484,0.97656h11.33984c1.25,0 2.36959,-0.77727 2.80859,-1.94727l0.74023,-2.07227h0.11328l2.03906,2.81836c0.566,0.756 1.45444,1.20117 2.39844,1.20117h10.79883c1.277,0 2.41498,-0.80862 2.83398,-2.01562l8.64063,-24.83984c0.243,-0.697 0.21855,-1.45962 -0.06445,-2.14062l-5.39844,-12.95898c-0.466,-1.118 -1.56048,-1.8457 -2.77148,-1.8457h-9.17969c-1.18,0 -2.25233,0.69058 -2.73633,1.76758l-1.63281,3.63086h-1.26367l-3.69141,-4.3418c-0.57,-0.67 -1.40516,-1.05664 -2.28516,-1.05664zM24.10352,20.09961h6.91797l-1.2832,4.65039h-7.22852zM47.11914,20.09961h4.55273l-2.71484,8.65039h-3.44141l0.95703,-4.01953c0.071,-0.297 0.0015,-0.60961 -0.1875,-0.84961c-0.17223,-0.21756 -0.42732,-0.34768 -0.70117,-0.37109zM53.16211,22.02539l3.38867,8.13086l-6.97461,20.04883l-3.71875,-4.89844zM38.78906,25.5h3.96094h1.48438l-0.77344,3.25h-5.44531zM21.82227,26.75h8.67773h2.21875l-0.68945,2.75781c-0.158,0.631 0.3197,1.24219 0.9707,1.24219h3.74805c0.00066,0 0.00129,0 0.00195,0h11.58008l-4.08008,13.00781c-0.02296,-0.00159 -0.04516,-0.00781 -0.06836,-0.00781h-8.5332l1.59375,-4.67773l1.70117,-4.99219c0.182,-0.521 -0.09228,-1.09044 -0.61328,-1.27344c-0.521,-0.182 -1.09044,0.09228 -1.27344,0.61328l-1.51562,4.33008h-7.09375l1.24805,-3.67773c0.179,-0.523 -0.10005,-1.08958 -0.62305,-1.26758c-0.521,-0.179 -1.09058,0.10105 -1.26758,0.62305l-0.79297,2.32227h-2.6875l0.61328,-1.65234c0.114,-0.306 0.07081,-0.64897 -0.11719,-0.91797c-0.186,-0.269 -0.49331,-0.42969 -0.82031,-0.42969h-4.23437zM19.08008,34.75h3.48438l-2.00195,5.40234c-0.114,0.306 -0.07081,0.64897 0.11719,0.91797c0.186,0.269 0.49331,0.42969 0.82031,0.42969h3.55273l-0.76758,2.25h-8.29101zM23.58594,37.75h2.74414l-0.38477,1.13086l-0.21094,0.61914h-2.79687z"></path></g></g><g fill="none" fill-rule="nonzero" stroke="none" stroke-width="none" stroke-linecap="butt" stroke-linejoin="none" stroke-miterlimit="10" stroke-dasharray="" stroke-dashoffset="0" font-family="none" font-weight="none" font-size="none" text-anchor="none" style="mix-blend-mode: normal"><path d="M189.5874,169.96624l7.48325,17.47898l18.93838,1.71675c4.37144,0.39617 6.13897,5.83423 2.83415,8.72594l-14.3096,12.51836l4.21906,18.53882c0.97519,4.28001 -3.65359,7.6424 -7.4223,5.39065l-16.33109,-9.73838l-16.32771,9.74177c-3.76871,2.24836 -8.39411,-1.11402 -7.4223,-5.39065l4.21906,-18.53882l-14.31299,-12.52175c-3.30143,-2.88833 -1.53728,-8.32977 2.83415,-8.72594l18.93838,-1.71675l7.48325,-17.47898c1.7269,-4.03283 7.44939,-4.03283 9.17629,0z" id="strokeOverlay" fill="#de4f4f" stroke="#de4f4f" stroke-width="32" stroke-linejoin="round"></path><g transform="translate(149.44535,166.32959) scale(3.38609,3.38609)" id="overlay" fill="#9b0000" stroke="none" stroke-width="1" stroke-linejoin="miter"><path d="M11.855,1.074l2.21,5.162l5.593,0.507c1.291,0.117 1.813,1.723 0.837,2.577l-4.226,3.697l1.246,5.475c0.288,1.264 -1.079,2.257 -2.192,1.592l-4.823,-2.876l-4.822,2.877c-1.113,0.664 -2.479,-0.329 -2.192,-1.592l1.246,-5.475l-4.227,-3.698c-0.975,-0.853 -0.454,-2.46 0.837,-2.577l5.593,-0.507l2.21,-5.162c0.51,-1.191 2.2,-1.191 2.71,0z"></path></g></g><g fill="none" fill-rule="nonzero" stroke="none" stroke-width="none" stroke-linecap="butt" stroke-linejoin="none" stroke-miterlimit="10" stroke-dasharray="" stroke-dashoffset="0" font-family="none" font-weight="none" font-size="none" text-anchor="none" style="mix-blend-mode: normal"><path d="M20.55278,207.80944h22.54v6.73h-3.89l-0.21,-2.83h-4.65v17.82l2.71,0.52v3.04h-10.49v-3.04l2.71,-0.52v-17.82h-4.64l-0.2,2.83h-3.88zM44.74278,233.08944v-3.04l2.69,-0.52v-18.15l-2.69,-0.52v-3.05h20.12v6.92h-3.89l-0.22,-3.02h-8.25v6.97h8.85v3.9h-8.85v6.95l2.71,0.52v3.04zM72.36278,228.63944v4.45h-5.05v-4.45zM72.36278,214.31944v4.44h-5.05v-4.44zM85.95278,207.80944c2.87333,0 5.12667,0.65667 6.76,1.97c1.63333,1.31333 2.45,3.12667 2.45,5.44c0,1.27333 -0.34333,2.38 -1.03,3.32c-0.68,0.93333 -1.68,1.69 -3,2.27c1.49333,0.44 2.56667,1.17333 3.22,2.2c0.65333,1.02 0.98,2.29 0.98,3.81v1.28c0,0.56 0.11,0.99333 0.33,1.3c0.22,0.30667 0.58333,0.48667 1.09,0.54l0.63,0.09v3.06h-2.62c-1.66,0 -2.82333,-0.44667 -3.49,-1.34c-0.67333,-0.89333 -1.01,-2.04667 -1.01,-3.46v-1.44c0,-1.22667 -0.32667,-2.19 -0.98,-2.89c-0.65333,-0.7 -1.57667,-1.06667 -2.77,-1.1h-4.15v6.67l2.71,0.52v3.04h-10.47v-3.04l2.69,-0.52v-18.15l-2.69,-0.52v-3.05zM82.36278,211.70944v7.24h3.51c1.41333,0 2.47,-0.3 3.17,-0.9c0.70667,-0.6 1.06,-1.46667 1.06,-2.6c0,-1.13333 -0.35,-2.04 -1.05,-2.72c-0.7,-0.68 -1.73333,-1.02 -3.1,-1.02zM111.08278,207.80944c2.89333,0 5.17333,0.74333 6.84,2.23c1.67333,1.48667 2.51,3.43333 2.51,5.84c0,2.42 -0.83667,4.36333 -2.51,5.83c-1.66667,1.47333 -3.94667,2.21 -6.84,2.21h-4.28v5.61l2.71,0.52v3.04h-10.47v-3.04l2.7,-0.52v-18.15l-2.7,-0.52v-3.05zM106.80278,211.70944v8.3h4.28c1.40667,0 2.47333,-0.38333 3.2,-1.15c0.72,-0.77333 1.08,-1.75333 1.08,-2.94c0,-1.22 -0.36,-2.22667 -1.08,-3.02c-0.72667,-0.79333 -1.79333,-1.19 -3.2,-1.19zM143.00278,220.56944v9.7c-0.82,0.81333 -2.01667,1.54667 -3.59,2.2c-1.57333,0.65333 -3.56333,0.98 -5.97,0.98c-3.42,0 -6.2,-1.14333 -8.34,-3.43c-2.14,-2.28667 -3.21,-5.25667 -3.21,-8.91v-0.87c0,-3.78667 1.05667,-6.86667 3.17,-9.24c2.11333,-2.37333 4.87,-3.56 8.27,-3.56c1.98,0 3.79,0.31667 5.43,0.95c1.63333,0.63333 2.99667,1.48667 4.09,2.56v5.09h-3.75l-0.72,-3.39c-0.46,-0.39333 -1.07,-0.70667 -1.83,-0.94c-0.75333,-0.24 -1.62333,-0.36 -2.61,-0.36c-2.21333,0 -3.93333,0.81667 -5.16,2.45c-1.22667,1.63333 -1.84,3.76667 -1.84,6.4v0.91c0,2.56667 0.60333,4.61667 1.81,6.15c1.2,1.53333 2.93667,2.3 5.21,2.3c1.02,0 1.84333,-0.08667 2.47,-0.26c0.63333,-0.17333 1.13,-0.37667 1.49,-0.61v-4.28l-3.62,-0.28v-3.56z" id="strokeMainSVG" fill="#de4f4f" stroke="#de4f4f" stroke-width="32" stroke-linejoin="round"></path><g fill="#3d3d3d" stroke="none" stroke-width="1" stroke-linejoin="miter"><path d="M20.55278,207.80944h22.54v6.73h-3.89l-0.21,-2.83h-4.65v17.82l2.71,0.52v3.04h-10.49v-3.04l2.71,-0.52v-17.82h-4.64l-0.2,2.83h-3.88zM44.74278,233.08944v-3.04l2.69,-0.52v-18.15l-2.69,-0.52v-3.05h20.12v6.92h-3.89l-0.22,-3.02h-8.25v6.97h8.85v3.9h-8.85v6.95l2.71,0.52v3.04zM67.31278,233.08944zM72.36278,228.63944v4.45h-5.05v-4.45zM72.36278,214.31944v4.44h-5.05v-4.44zM77.29278,207.80944h8.66c2.87333,0 5.12667,0.65667 6.76,1.97c1.63333,1.31333 2.45,3.12667 2.45,5.44v0c0,1.27333 -0.34333,2.38 -1.03,3.32c-0.68,0.93333 -1.68,1.69 -3,2.27v0c1.49333,0.44 2.56667,1.17333 3.22,2.2c0.65333,1.02 0.98,2.29 0.98,3.81v0v1.28c0,0.56 0.11,0.99333 0.33,1.3c0.22,0.30667 0.58333,0.48667 1.09,0.54v0l0.63,0.09v3.06h-2.62c-1.66,0 -2.82333,-0.44667 -3.49,-1.34c-0.67333,-0.89333 -1.01,-2.04667 -1.01,-3.46v0v-1.44c0,-1.22667 -0.32667,-2.19 -0.98,-2.89c-0.65333,-0.7 -1.57667,-1.06667 -2.77,-1.1v0h-4.15v6.67l2.71,0.52v3.04h-10.47v-3.04l2.69,-0.52v-18.15l-2.69,-0.52v-3.05zM82.36278,211.70944v7.24h3.51c1.41333,0 2.47,-0.3 3.17,-0.9c0.70667,-0.6 1.06,-1.46667 1.06,-2.6v0c0,-1.13333 -0.35,-2.04 -1.05,-2.72c-0.7,-0.68 -1.73333,-1.02 -3.1,-1.02v0zM101.74278,207.80944h9.34c2.89333,0 5.17333,0.74333 6.84,2.23c1.67333,1.48667 2.51,3.43333 2.51,5.84v0c0,2.42 -0.83667,4.36333 -2.51,5.83c-1.66667,1.47333 -3.94667,2.21 -6.84,2.21v0h-4.28v5.61l2.71,0.52v3.04h-10.47v-3.04l2.7,-0.52v-18.15l-2.7,-0.52v-3.05zM106.80278,211.70944v8.3h4.28c1.40667,0 2.47333,-0.38333 3.2,-1.15c0.72,-0.77333 1.08,-1.75333 1.08,-2.94v0c0,-1.22 -0.36,-2.22667 -1.08,-3.02c-0.72667,-0.79333 -1.79333,-1.19 -3.2,-1.19v0zM143.00278,220.56944v9.7c-0.82,0.81333 -2.01667,1.54667 -3.59,2.2c-1.57333,0.65333 -3.56333,0.98 -5.97,0.98v0c-3.42,0 -6.2,-1.14333 -8.34,-3.43c-2.14,-2.28667 -3.21,-5.25667 -3.21,-8.91v0v-0.87c0,-3.78667 1.05667,-6.86667 3.17,-9.24c2.11333,-2.37333 4.87,-3.56 8.27,-3.56v0c1.98,0 3.79,0.31667 5.43,0.95c1.63333,0.63333 2.99667,1.48667 4.09,2.56v0v5.09h-3.75l-0.72,-3.39c-0.46,-0.39333 -1.07,-0.70667 -1.83,-0.94c-0.75333,-0.24 -1.62333,-0.36 -2.61,-0.36v0c-2.21333,0 -3.93333,0.81667 -5.16,2.45c-1.22667,1.63333 -1.84,3.76667 -1.84,6.4v0v0.91c0,2.56667 0.60333,4.61667 1.81,6.15c1.2,1.53333 2.93667,2.3 5.21,2.3v0c1.02,0 1.84333,-0.08667 2.47,-0.26c0.63333,-0.17333 1.13,-0.37667 1.49,-0.61v0v-4.28l-3.62,-0.28v-3.56z"></path></g></g></g></svg>